<svg xmlns="http://www.w3.org/2000/svg" width="236" height="47" viewBox="0 0 236 47" fill="none">
  <g clip-path="url(#clip0_12_96)">
    <path d="M77.4 13.4C72.1 13.4 68.9 15.8 68.9 22.3V25.9C68.9 32.4 72.1 34.8 77.4 34.8C82.7 34.8 85.9 32.4 85.9 25.9V22.3C85.9 15.8 82.8 13.4 77.4 13.4ZM81.9 25.9C81.9 30 80.1 31.2 77.4 31.2C74.7 31.2 72.9 29.8 72.9 25.9V22.3C72.9 18.6 74.8 17 77.5 17C80.2 17 82 18.4 82 22.3L81.9 25.9Z" fill="#212549"/>
    <path d="M124.6 13.7H117.1C117.1 13.7 116.8 13.7 116.8 14C116.8 14.4 116.8 34 116.8 34.3C116.8 34.6 117.1 34.6 117.1 34.6H120.7C120.7 34.6 121 34.6 121 34.3C121 33.9 121 26.8 121 26.5C121 26.2 121.3 26.2 121.3 26.2H125.3C129 26.2 131.4 23.4 131.4 19.8C131.5 16.2 128.4 13.7 124.6 13.7ZM124.4 22.8H121.3C121.3 22.8 121 22.8 121 22.5C121 22.2 121 17.4 121 17.1C121 16.8 121.3 16.8 121.3 16.8H124.4C126.1 16.8 127.6 18 127.6 19.7C127.6 21.5 126.1 22.8 124.4 22.8Z" fill="#212549"/>
    <path d="M109.1 13.7H89.5C89.5 13.7 89.2 13.7 89.2 14C89.2 14 89.2 34 89.2 34.3C89.2 34.6 89.5 34.6 89.5 34.6H93C93 34.6 93.3 34.6 93.3 34.3C93.3 34 93.3 17.7 93.3 17.7C93.3 17.7 98.1 17.7 98.5 17.7C98.9 17.7 98.8 18 98.8 18C98.8 18 98.8 34 98.8 34.3C98.8 34.6 99.1 34.6 99.1 34.6H102.7C102.7 34.6 103 34.6 103 34.3C103 34 103 17.7 103 17.7C103 17.7 107.8 17.7 108.2 17.7C108.5 17.7 108.5 18 108.5 18C108.5 18 108.5 34 108.5 34.3C108.5 34.6 108.8 34.6 108.8 34.6H112.4C112.4 34.6 112.7 34.6 112.7 34.3C112.7 34 112.7 16.5 112.7 16.5C112.6 15.5 112.3 13.7 109.1 13.7Z" fill="#212549"/>
    <path d="M162.5 31C162.2 31 153.7 31 153.7 31C153.7 31 153.4 31 153.4 30.7C153.4 30.4 153.4 26.2 153.4 25.9C153.4 25.6 153.7 25.6 153.7 25.6C153.7 25.6 160.8 25.6 161.1 25.6C161.4 25.6 161.4 25.3 161.4 25.3V22.3C161.4 22.3 161.4 22 161.1 22C160.9 22 153.7 22 153.7 22C153.7 22 153.4 22 153.4 21.7C153.4 21.4 153.4 17.9 153.4 17.6C153.4 17.3 153.7 17.3 153.7 17.3C153.7 17.3 162.2 17.3 162.5 17.3C162.8 17.3 162.8 17 162.8 17V14C162.8 14 162.8 13.7 162.5 13.7C162.2 13.7 149.4 13.7 149.4 13.7C149.4 13.7 149.1 13.7 149.1 14C149.1 14 149.1 34 149.1 34.3C149.1 34.6 149.4 34.6 149.4 34.6C149.4 34.6 162.2 34.6 162.5 34.6C162.8 34.6 162.8 34.3 162.8 34.3V31.3C162.8 31.3 162.8 31 162.5 31Z" fill="#212549"/>
    <path d="M165.5 13.7C165.5 13.7 165.1 13.7 165.1 14C165.1 14.3 165.1 16.7 165.1 17C165.1 17.3 165.4 17.3 165.4 17.3C165.4 17.3 169.7 17.3 170.1 17.3C170.5 17.3 170.4 17.6 170.4 17.6C170.4 17.6 170.4 34 170.4 34.3C170.4 34.6 170.7 34.6 170.7 34.6H174.1C174.1 34.6 174.5 34.6 174.5 34.3C174.5 33.9 174.5 17.6 174.5 17.6C174.5 17.6 174.5 17.3 174.8 17.3C175.2 17.3 179.2 17.3 179.5 17.3C179.9 17.3 179.8 17 179.8 17V14C179.8 14 179.8 13.7 179.5 13.7C179.2 13.7 165.5 13.7 165.5 13.7Z" fill="#212549"/>
    <path d="M196.2 13.7C195.9 13.7 182.3 13.7 182.3 13.7C182.3 13.7 181.9 13.7 181.9 14C181.9 14.3 181.9 16.7 181.9 17C181.9 17.3 182.2 17.3 182.2 17.3C182.2 17.3 186.5 17.3 186.9 17.3C187.3 17.3 187.2 17.6 187.2 17.6C187.2 17.6 187.2 34 187.2 34.3C187.2 34.6 187.5 34.6 187.5 34.6H190.9C190.9 34.6 191.3 34.6 191.3 34.3C191.3 33.9 191.3 17.6 191.3 17.6C191.3 17.6 191.3 17.3 191.6 17.3C192 17.3 196 17.3 196.3 17.3C196.6 17.3 196.6 17 196.6 17V14C196.4 14 196.4 13.7 196.2 13.7Z" fill="#212549"/>
    <path d="M68.1 13.7C67.5 13.7 64.1 13.7 63.7 13.7C63.3 13.7 63.1 14 63.1 14L55.3 22.6C55.3 22.6 55.3 14.2 55.3 14C55.3 13.8 55 13.7 55 13.7H51.4C51.4 13.7 51.1 13.7 51.1 14C51.1 14.3 51.1 34 51.1 34.3C51.1 34.6 51.4 34.6 51.4 34.6H55C55 34.6 55.3 34.6 55.3 34.3C55.3 34 55.3 24.8 55.3 24.8L63.2 34.3C63.2 34.3 63.4 34.6 63.8 34.6C64.2 34.6 67.5 34.6 68 34.6C68.5 34.6 68.3 34.3 68.3 34.3L59.2 23.5L68.3 13.9C68.4 14 68.7 13.7 68.1 13.7Z" fill="#212549"/>
    <path d="M138.5 31C138.5 31 138.2 31 138.2 30.7C138.2 30.4 138.2 14.3 138.2 14C138.2 13.7 137.9 13.7 137.9 13.7H134.3C134.3 13.7 134 13.7 134 14C134 14.4 134 34 134 34.3C134 34.6 134.3 34.6 134.3 34.6C134.3 34.6 145.7 34.6 146.1 34.6C146.4 34.6 146.4 34.3 146.4 34.3V31.3C146.4 31.3 146.4 31 146.1 31C145.8 31 138.5 31 138.5 31Z" fill="#212549"/>
    <path d="M202.5 12.3C204.3 12.3 205.7 13.7 205.7 15.5C205.7 17.3 204.3 18.7 202.5 18.7C200.8 18.7 199.3 17.3 199.3 15.5C199.3 13.7 200.7 12.3 202.5 12.3ZM202.5 18C203.9 18 205 16.9 205 15.5C205 14.1 203.9 13 202.5 13C201.1 13 200 14.1 200 15.5C200 16.9 201 18 202.5 18ZM204.1 16.7V17.2L204 17.3H203.7L203.5 17.2L202.5 16L202.3 15.9H201.7L201.6 16V17.2L201.5 17.3H201L200.9 17.2V13.8L201 13.7H202.8C203.5 13.7 204 14.1 204 14.8C204 15.3 203.8 15.6 203.3 15.8V15.9L204.1 16.7ZM203 14.4H201.9L201.8 14.5V15.2L201.9 15.3H203C203.3 15.3 203.5 15.1 203.5 14.8C203.4 14.5 203.2 14.4 203 14.4Z" fill="#212549"/>
    <path d="M30.5 17.5L40.7 11.6L20.5 -0.0999756L0.0999756 11.6V35L20.5 46.8L40.7 35L30.5 17.5Z" fill="#F7B912"/>
    <path d="M0.0999756 35L10.3 29.2L20.5 46.8L0.0999756 35Z" fill="#F7B912"/>
    <path d="M0.0999756 11.6L20.5 -0.0999756L40.7 11.6L20.5 23.3L0.0999756 11.6Z" fill="#F7B912"/>
    <path d="M0.0999756 11.6L20.5 23.3L0.0999756 35V11.6Z" fill="url(#paint0_linear_12_96)"/>
    <path d="M30.4999 17.5L40.6999 35L20.4999 46.8L10.2999 29.2L30.4999 17.5Z" fill="url(#paint1_linear_12_96)"/>
    <path d="M203.8 34.6H200.7L200.4 34.3V31.2L200.7 30.9H203.8L204.1 31.2V34.3L203.8 34.6Z" fill="#F7B912"/>
    <path d="M213.4 34.9C209.4 34.9 207.2 33 207.2 29.6L207.5 29.3H210L210.3 29.6C210.3 31.2 211.2 32.1 213.4 32.1C215.6 32.1 216.5 31.5 216.5 30.2C216.5 28.7 215.6 28.3 212.5 27.7C209.4 27.1 207.5 25.8 207.5 23C207.5 20.8 209 18.7 213.4 18.7C216.8 18.7 219.3 20.2 219.3 23.4L219 23.7H216.5L216.2 23.4C216.2 22.5 215.6 21.5 213.4 21.5C211.9 21.5 210.6 21.8 210.6 23C210.6 24.6 211.8 24.9 214.9 25.5C218 26.1 219.6 27.4 219.6 30.2C219.6 32.7 217.8 34.9 213.4 34.9Z" fill="#F7B912"/>
    <path d="M221.5 26.8C221.5 22.5 223.7 18.7 228.6 18.7C233.5 18.7 235.7 22.4 235.7 26.8V27.7L235.4 28H225.2L224.9 28.3C224.9 28.9 225.2 32 228.9 32C230.1 32 231.4 31.7 232 30.1L232.3 29.8H234.8L235.1 30.1C234.8 32.6 232.6 34.8 228.9 34.8C224 34.9 221.5 31.5 221.5 26.8ZM232.3 25.3C232.3 24.4 232 21.6 228.6 21.6C225.2 21.6 224.9 24.4 224.9 25.3L225.2 25.6H232L232.3 25.3Z" fill="#F7B912"/>
  </g>
  <defs>
    <linearGradient id="paint0_linear_12_96" x1="1.39676" y1="35.7043" x2="10.6269" y2="16.7798" gradientUnits="userSpaceOnUse">
      <stop stop-color="#B77B06"/>
      <stop offset="0.5" stop-color="#D7920A"/>
      <stop offset="1" stop-color="#ECA70D"/>
    </linearGradient>
    <linearGradient id="paint1_linear_12_96" x1="19.3794" y1="23.0759" x2="31.6116" y2="41.2107" gradientUnits="userSpaceOnUse">
      <stop stop-color="#B77B06"/>
      <stop offset="0.5" stop-color="#E69F0C"/>
      <stop offset="1" stop-color="#F7B912"/>
    </linearGradient>
    <clipPath id="clip0_12_96">
      <rect width="235.6" height="46.9" fill="white"/>
    </clipPath>
  </defs>
</svg>